<svg xmlns="http://www.w3.org/2000/svg" viewBox="0 0 50.11 50.48"><defs><style>.cls-1{fill:#e7575e;}.cls-2{fill:#fdf8f8;}.cls-3{fill:#e23646;}</style></defs><g id="Calque_2" data-name="Calque 2"><g id="Calque_1-2" data-name="Calque 1"><path class="cls-1" d="M50.11,25.26A25.06,25.06,0,1,1,0,25.28,25.31,25.31,0,0,1,24.83,0,25.08,25.08,0,0,1,50.11,25.26ZM24.76,43.06A17.94,17.94,0,0,0,43,25.39,17.93,17.93,0,1,0,24.76,43.06Z"/><path class="cls-2" d="M36.27,25.46A11.3,11.3,0,0,0,25.14,13.88,11.07,11.07,0,0,0,14,25.33a11.07,11.07,0,0,0,10.81,11.3A11.24,11.24,0,0,0,36.27,25.46Z"/><path class="cls-3" d="M36.27,25.38A11.23,11.23,0,0,1,24.85,36.63,11.07,11.07,0,0,1,14,25.4a11.07,11.07,0,0,1,11.1-11.52A11.3,11.3,0,0,1,36.27,25.38Z"/></g></g></svg>